PathFileType	4	(X/Y/Z)	C:/Users/opensim2020/Desktop/walking_exp_matlab/subject01_walking14_straight_04.trc																																																																																																																												
DataRate	CameraRate	NumFrames	NumMarkers	Units	OrigDataRate	OrigDataStartFrame	OrigNumFrames																																																																																																																								
100	100	4	42	mm	100	2096	89																																																																																																																								
Frame#	Time	LFHD			RFHD			LBHD			RBHD			C7			T10			CLAV			STRN			RBAK			LSHO			LUPA			LELB			LFRM			LWRA			LWRB			LFIN			RSHO			RUPA			RELB			RFRM			RWRA			RWRB			RFIN			LASI			RASI			LPSI			RPSI			LTHI			LKNE			LTIB			LANK			LHEE			LTOE			RTHI			RKNE			RTIB			RANK			RHEE			RTOE			*39			*40			*41		
		X1	Y1	Z1	X2	Y2	Z2	X3	Y3	Z3	X4	Y4	Z4	X5	Y5	Z5	X6	Y6	Z6	X7	Y7	Z7	X8	Y8	Z8	X9	Y9	Z9	X10	Y10	Z10	X11	Y11	Z11	X12	Y12	Z12	X13	Y13	Z13	X14	Y14	Z14	X15	Y15	Z15	X16	Y16	Z16	X17	Y17	Z17	X18	Y18	Z18	X19	Y19	Z19	X20	Y20	Z20	X21	Y21	Z21	X22	Y22	Z22	X23	Y23	Z23	X24	Y24	Z24	X25	Y25	Z25	X26	Y26	Z26	X27	Y27	Z27	X28	Y28	Z28	X29	Y29	Z29	X30	Y30	Z30	X31	Y31	Z31	X32	Y32	Z32	X33	Y33	Z33	X34	Y34	Z34	X35	Y35	Z35	X36	Y36	Z36	X37	Y37	Z37	X38	Y38	Z38	X39	Y39	Z39	X40	Y40	Z40	X41	Y41	Z41	X42	Y42	Z42
																																																																																																																															
23	0.22	-361.13248	1659.58875	1058.93811	-313.77795	1662.54102	1162.95044	-472.16275	1626.92725	1103.60364	-425.77609	1630.01147	1215.07642	-516.27936	1430.1322	1120.67871	-559.56384	1135.99988	1113.86267	-372.21619	1360.14648	1134.46765	-333.37076	1204.87463	1130.53992	-581.36395	1235.54968	1182.20972	-418.79968	1401.48816	972.5119	-442.0603	1228.72632	870.81793	-450.29504	1076.349	850.67651	-358.22488	998.09735	848.28021	-236.87733	947.6759	891.35461	-274.89041	910.98688	863.935	-197.19859	882.11273	862.88898	-456.26996	1395.51648	1274.39368	-546.79523	1204.81482	1362.3877	-552.20142	1082.68616	1372.32678	-556.21924	967.83514	1411.72449	-507.57773	832.43292	1409.25952	-552.99146	848.13458	1441.83875	-536.2381	764.2171	1454.44604	-383.87399	926.75488	1015.0943	-379.35379	938.23865	1229.24036	-567.16315	938.27972	1069.19653	-563.52972	946.51294	1214.83984	-428.85593	584.46552	958.79364	-448.19028	450.66135	966.13568	-599.93933	344.43771	954.81787	-775.89319	213.51215	1004.15173	-816.69324	238.14105	1057.21936	-748.97479	69.17471	1023.35535	-381.22281	608.0473	1295.68909	-339.49728	455.49432	1270.97583	-380.61896	282.50613	1279.66125	-392.92072	76.86773	1233.22485	-439.32602	38.11137	1182.44775	-251.77205	38.11324	1237.49243	-328.71964	1696.94165	1143.89355	-1973.13428	1023.51617	3101.98071	-2012.42578	1022.01807	3140.70313
24	0.23	-347.86447	1661.27527	1061.78442	-300.1059	1663.76392	1165.63806	-458.94403	1628.95996	1107.7218	-412.00327	1631.24902	1218.09094	-502.80865	1431.9281	1123.17847	-546.68292	1137.72339	1115.98572	-359.10431	1361.69031	1135.97144	-320.39185	1206.2439	1131.45496	-568.17712	1237.30359	1184.94397	-406.41998	1403.3136	974.29022	-432.30661	1230.9967	872.49744	-443.12057	1078.10876	853.30225	-353.75333	996.69159	849.41046	-233.2605	942.11932	890.97748	-273.15671	906.85748	863.9505	-196.58574	875.20135	861.84827	-442.18625	1396.47998	1276.40161	-530.78607	1205.23743	1365.10718	-535.05865	1082.61572	1375.04395	-535.56317	967.10272	1413.88586	-482.75781	833.4483	1410.76941	-528.474	847.41315	1443.55554	-508.87155	764.60846	1455.96899	-371.42758	928.36414	1016.04718	-366.73895	939.43231	1230.64124	-554.5946	939.52985	1070.90527	-551.03033	948.44812	1216.42517	-407.70566	585.82117	959.61798	-423.69321	451.7341	967.25769	-576.42322	347.26349	957.01703	-751.96289	217.67268	1007.47467	-792.62073	241.16716	1061.90198	-724.86401	73.12007	1023.19543	-375.48267	607.94446	1296.33362	-335.13681	454.82748	1271.69299	-378.71667	282.5	1280.15747	-392.55157	76.96133	1233.14429	-439.19965	38.3173	1182.59692	-251.59372	37.87579	1237.41602	-314.9639	1698.31689	1146.69971	-1973.14124	1023.47284	3101.98145	-2012.46582	1022.05054	3140.81982
25	0.24	-334.46701	1662.97253	1064.4032	-286.35004	1664.83484	1168.10315	-445.65775	1630.92981	1110.49475	-398.17215	1632.3219	1220.61243	-489.50754	1433.68787	1125.44458	-533.85291	1139.46204	1118.25842	-346.00037	1363.2749	1137.35535	-307.4295	1207.6615	1132.18359	-555.1217	1239.15393	1187.62756	-394.04626	1405.08997	975.90173	-422.19724	1233.07227	873.87988	-435.92776	1079.81421	855.75012	-349.53964	995.16956	850.50232	-230.24684	936.39783	890.54938	-271.85953	902.69623	863.98053	-196.43045	868.41174	860.74976	-428.09879	1397.53271	1278.34204	-514.75146	1205.8291	1367.67102	-517.92084	1082.68237	1377.54675	-514.69781	966.62823	1416.08228	-457.8244	834.92365	1412.11365	-503.54718	846.98218	1444.9325	-480.94949	765.33154	1457.44824	-359.61444	929.76727	1016.8775	-354.26996	940.39935	1232.15027	-542.19525	940.72699	1072.52612	-538.51709	950.26556	1217.89978	-386.4613	588.16913	960.36755	-399.67465	454.26538	968.24847	-552.19965	349.78683	959.42694	-726.828	220.12746	1011.10864	-768.07599	242.57198	1066.41528	-698.74756	76.1743	1023.76025	-369.68176	608.03973	1296.56335	-330.95914	454.26331	1272.30908	-376.82013	282.30875	1280.70044	-392.41394	76.964	1233.28308	-439.35074	38.5299	1182.60205	-251.41887	37.70377	1237.53174	-301.0116	1699.61279	1149.50928	-1973.19763	1023.53217	3101.97656	-2012.47815	1022.01086	3140.74683
26	0.25	-321.06516	1664.55591	1066.7085	-272.62686	1665.91406	1170.26709	-432.04675	1632.57263	1113.09729	-384.52646	1633.65381	1223.1969	-476.3226	1435.29919	1127.52063	-521.0769	1141.11926	1120.53821	-332.8735	1364.74023	1138.51855	-294.51093	1209.02026	1132.85083	-542.06915	1240.99451	1190.22229	-381.61545	1406.68103	977.3374	-412.80142	1235.18445	875.53979	-428.35327	1081.51636	858.23596	-345.54422	993.62939	851.63751	-227.71764	930.56494	890.13885	-270.83759	898.63507	864.1731	-196.88161	861.63104	859.77075	-414.12457	1398.7478	1280.02161	-498.8476	1206.63171	1370.14758	-500.81613	1082.92932	1379.85864	-493.62308	966.51605	1418.078	-432.37271	836.96954	1413.30835	-478.4617	847.21118	1446.39319	-452.71066	766.59692	1458.45288	-347.14917	931.53339	1018.08307	-342.01541	941.12335	1233.76013	-529.84558	941.92841	1073.96301	-526.15222	951.95807	1219.28589	-365.28485	591.15881	961.17987	-376.28732	457.80084	969.17444	-527.41827	352.06699	962.08313	-701.70496	221.78117	1014.69269	-743.14154	242.4931	1070.80444	-670.01733	78.18933	1025.13916	-362.98242	608.24603	1297.29053	-326.95828	453.79703	1273.28137	-375.112	282.19421	1281.47607	-392.15283	76.89023	1233.49927	-439.65936	38.79314	1182.6604	-251.47678	37.50785	1237.57605	-287.08484	1700.7439	1152.12231	-1973.30908	1023.40082	3101.8457	-2012.51904	1021.95538	3140.75928
